<svg id="Capa_1" enable-background="new 0 0 497 497" height="512" viewBox="0 0 497 497" width="512" xmlns="http://www.w3.org/2000/svg"><g><path d="m105.197 381.197-103 103c-2.929 2.929-2.929 7.678 0 10.606 2.929 2.929 7.678 2.929 10.606 0l103-103z" fill="#7587b3"/><path d="m385.254 47.353h45v105h-45z" fill="#4fdbff" transform="matrix(.707 .707 -.707 .707 190.035 -259.079)"/><path d="m376.844 31.443h30v105h-30z" fill="#8ae7ff" transform="matrix(.707 .707 -.707 .707 174.125 -252.489)"/><path d="m492.607 89.246-21.213-21.213-21.214 21.213 21.213 21.213c5.858 5.858 15.355 5.858 21.213 0 5.858-5.857 5.859-15.355.001-21.213z" fill="#8ae7ff"/><path d="m471.393 89.246c5.858-5.858 5.858-15.355 0-21.213l-63.64-63.64c-5.858-5.858-15.355-5.858-21.213 0s-5.858 15.355 0 21.213l63.64 63.64c5.858 5.858 15.356 5.858 21.213 0z" fill="#c4f3ff"/><path d="m117.84 350.876-34.433 40.694c-2.52 2.978-2.336 7.39.422 10.148l11.454 11.454c2.758 2.758 7.17 2.942 10.148.422l40.694-34.433-7.071-21.213z" fill="#4fdbff"/><path d="m192.086 340.269-35.355-35.355-38.891 45.962 28.284 28.284z" fill="#14cfff"/><path d="m397.147 163.492-35.355-35.355-88.388 88.388 49.497 21.214z" fill="#8ae7ff"/><path d="m333.508 99.853-74.247 74.246 28.285 56.569 88.388-88.389z" fill="#c4f3ff"/><path d="m280.475 280.165h-42.427l17.678-45.962 38.891-10.607 7.071 35.356z" fill="#524cb2"/><path d="m238.048 280.165-21.213-63.64 21.213-21.213 56.569 28.284z" fill="#636da4"/><path d="m195.622 365.018 84.853-84.853-21.213-21.213-68.943 26.517-37.123 58.336 21.213 21.213c5.857 5.858 15.355 5.858 21.213 0z" fill="#ffb35c"/><path d="m131.982 322.591 21.213 21.213c5.858 5.858 15.355 5.858 21.213 0l84.853-84.853-42.426-42.426-84.853 84.853c-5.858 5.858-5.858 15.356 0 21.213z" fill="#ffd06a"/><path d="m301.688 258.952-21.213-21.213-3.536-24.749 24.749 3.535 21.213 21.214z" fill="#636da4"/><path d="m239.868 190.919h60v30h-60z" fill="#7587b3" transform="matrix(.707 .707 -.707 .707 224.649 -130.513)"/><path d="m439.574 184.706-21.213-21.213-21.213 21.213 21.213 21.213c5.858 5.858 15.355 5.858 21.213 0 5.857-5.858 5.857-15.356 0-21.213z" fill="#8ae7ff"/><path d="m418.36 184.706c5.858-5.858 5.858-15.355 0-21.213l-106.066-106.067c-5.858-5.858-15.355-5.858-21.213 0s-5.858 15.355 0 21.213l106.066 106.066c5.858 5.858 15.356 5.858 21.213.001z" fill="#c4f3ff"/></g></svg>